<?xml version="1.0" encoding="utf-8"?>
<!-- Generator: Adobe Illustrator 27.0.0, SVG Export Plug-In . SVG Version: 6.00 Build 0)  -->
<svg version="1.1" xmlns="http://www.w3.org/2000/svg" xmlns:xlink="http://www.w3.org/1999/xlink" x="0px" y="0px"
	 viewBox="0 0 283.5 283.5" style="enable-background:new 0 0 283.5 283.5;" xml:space="preserve">
<style type="text/css">
	.st0{fill:#020719;}
	.st1{fill:#FCFCFC;}
	.st2{fill:#126BE5;}
</style>
<g id="Capa_1">
	
		<image style="overflow:visible;" width="1254" height="1254" xlink:href="D1A9FE3C.jpg"  transform="matrix(1 0 0 1 -2221.0833 -710.1467)">
	</image>
	<g>
		<path class="st0" d="M283,39.2c0-4-0.6-7.9-1.9-11.6C275.7,11,261,0,244,0C175.8,0,107.6,0,39.4,0c-8.9,0-16.9,2.9-23.8,8.5
			C5.4,16.7,0.4,27.4,0.4,40.6c0,33.8,0,67.6,0,101.4c0,34,0,67.9,0,101.9c0,7.1,1.7,13.8,5.4,19.9c7.6,12.6,18.9,19.6,33.6,19.7
			c68.1,0.2,136.3,0.1,204.4,0.1c1.9,0,3.7-0.2,5.6-0.4c20.1-2.9,33.6-19.9,33.6-38.6C283.1,176,283,107.6,283,39.2z"/>
		<g>
			<path class="st1" d="M127,183.2c-4.9,4.7-10,8.4-15.9,10.7c-17.5,6.6-34.6,6.2-50.4-4.7c-8-5.5-13.1-13.5-16.4-22.5
				c-3.6-9.6-4.7-19.5-4.6-29.7c0.1-20.1,0-40.2,0.1-60.3c0-12.9,0-25.8,0-38.8c0-1.1,0.3-1.5,1.4-1.5c15.1,0,30.3,0,45.4,0
				c1.2,0,1.3,0.4,1.3,1.4c0,32.1,0,64.2,0,96.4c0,2.5,0.2,4.9,1,7.3c1.6,5.4,5,9.1,10.3,10.8c7.8,2.5,15.3,2.2,22.1-3
				c4-3.1,5.8-7.4,5.8-12.3c0-32.1,0-64.1,0-96.2c0-1.4-0.5-3.2,0.2-4c0.8-0.9,2.7-0.3,4.1-0.3c13.6,0,27.1,0,40.7,0
				c1.3,0,1.6,0.3,1.6,1.6c0,37.5,0,75,0,112.4c0,2,0,2-2,2c-7.1,0-14.1,0-21.2,0c-1.2,0-1.6,0.2-1.6,1.5c0,13.8,0,27.5,0,41.3
				c0,1.3-0.2,1.7-1.6,1.7c-6.3-0.1-12.7-0.1-19,0c-1,0-1.3-0.3-1.3-1.3C127.1,191.6,127,187.6,127,183.2z"/>
			<path class="st1" d="M112.5,247.2c-18.8,0-37.6,0-56.4,0c-6.2,0-11.2-2.4-14.2-7.8c-3.2-5.8-3.2-11.8,0.3-17.5
				c3.1-5,7.9-7.2,13.7-7.2c24.7,0,49.3,0,74,0c13.3,0,26.5,0,39.8,0c2.8,0,4,1.1,4,3.9c0,8.3,0,16.7,0,25c0,2.6-1.1,3.7-3.6,3.7
				C150.8,247.2,131.6,247.2,112.5,247.2z"/>
			<path class="st1" d="M216.3,92.8c4.9,0,9.8-0.1,14.7,0c2.5,0,4.2,2,4.2,4.5c0,17.9,0,35.8,0,53.8c0,1.1-0.3,1.5-1.5,1.5
				c-17.1,0-34.2,0-51.3,0c-1.1,0-1.4-0.3-1.4-1.4c0-19.1,0-38.1,0-57.2c0-0.6-0.2-1.2,0.9-1.2c6,0.1,12.1,0.1,18.1,0.1
				c0,6,0,12,0,18c0,1,0.3,1.6,1.4,1.6c4.4,0,8.8,0,13.2,0c1.2,0,1.6-0.5,1.6-1.7C216.3,104.7,216.3,98.8,216.3,92.8z"/>
			<path class="st1" d="M229.7,160c3.6,0,7.3-0.1,10.9,0c2.2,0,3.3,1.5,3.3,3.8c0,9.9,0,19.8,0,29.7c0,3.3,0,6.7,0,10
				c0,1-0.3,1.2-1.2,1.2c-12.6,0-25.1,0-37.7,0c-1,0-1.3-0.3-1.3-1.3c0-14.1,0-28.2,0-42.3c0-0.7-0.1-1.3,1-1.3
				c4.3,0.1,8.6,0.1,13,0.1c0,4.4,0,8.8,0,13.2c0,1,0.2,1.6,1.3,1.6c3,0,6,0,9,0c1.2,0,1.7-0.5,1.7-1.7
				C229.7,168.8,229.7,164.4,229.7,160z"/>
			<path class="st1" d="M183.3,160c4.3,0,8.6,0,13-0.1c1.1,0,1.2,0.4,1.2,1.3c0,5.8,0,11.7,0,17.5c0,8.2,0,16.4,0.1,24.6
				c0,1.2-0.3,1.4-1.5,1.4c-12.5,0-25,0-37.6,0c-1.1,0-1.4-0.2-1.4-1.4c0-14,0-28.1,0-42.1c0-1.1,0.2-1.4,1.4-1.4
				c4.3,0.1,8.5,0.1,12.8,0.1c0,4.4,0,8.8,0,13.2c0,1.2,0.4,1.7,1.6,1.7c2.8,0,5.6,0,8.4,0c1.9,0,2.1-0.2,2.1-2.1
				C183.3,168.5,183.3,164.3,183.3,160z"/>
			<path class="st2" d="M216.3,92.8c0,5.9,0,11.9,0,17.8c0,1.2-0.3,1.7-1.6,1.7c-4.4,0-8.8,0-13.2,0c-1.1,0-1.4-0.5-1.4-1.6
				c0-6,0-12,0-18C205.6,92.7,210.9,92.7,216.3,92.8z"/>
			<path class="st2" d="M183.3,160c0,4.3,0,8.5,0,12.8c0,1.9-0.2,2.1-2.1,2.1c-2.8,0-5.6,0-8.4,0c-1.2,0-1.6-0.4-1.6-1.7
				c0.1-4.4,0-8.8,0-13.2C175.2,160,179.2,160,183.3,160z"/>
			<path class="st2" d="M229.7,160c0,4.4-0.1,8.7,0,13.1c0,1.3-0.5,1.8-1.7,1.7c-3,0-6,0-9,0c-1.2,0-1.3-0.7-1.3-1.6
				c0-4.4,0-8.8,0-13.2C221.7,159.9,225.7,159.9,229.7,160z"/>
		</g>
	</g>
</g>
<g id="Modo_de_aislamiento">
</g>
</svg>
